<svg width = "30"
     height = "30" 
     xmlns = "http://www.w3.org/2000/svg"
     fillRule = "evenodd" 
     clipRule = "evenodd">
    <path d = "M 13.75 28.75 l -9.9763 0.0175 v -12.5 l 11.2263
           -10 c 3.75 3.335 7.5 6.6487 11.25 9.9825 v 12.5
           l -9.9763 0.0175 v -2.5 c 0 -0.0225 0.0137 -0.9 
           -0.0013 -1.315 c -0.0338 -0.5262 -0.3625 -0.9287
           -0.7925 -1.1 c -0.2963 -0.1125 -0.625 -0.1112
           -0.9125 0 c -0.43 0.1713 -0.7837 0.5313 -0.8175 
           1.0562 c -0.0163 0.4387 0 1.3413 0 1.3413 v 2.5 
           z 
           m 5 -2.5 h 5 l 0.0238 -8.8725 l -8.7737 -7.765 l
           -8.75 7.79 v 8.8475 h 5 l 0.0238 -1.2325 c 0.0213
           -1.7237 1.1113 -3.0262 2.4613 -3.52 c 0.8213 
           -0.305 1.7563 -0.305 2.5775 0 c 1.3712 0.5012 
           2.4163 1.7963 2.4375 3.5025 v 1.25 z
           m -4.6738 -10 h 1.8475 c 1.4638 0.0213 1.5812 
           -1.2325 2.8262 -1.2325 c 0.805 0 1.245 0.655 
           1.25 1.25 c 0.005 0.595 -0.35 1.0325 -0.7788 
           1.2463 c 0.41 0.2213 0.775 0.6588 0.7788 1.2537 
           c 0.0037 0.595 -0.435 1.25 -1.25 1.25 c -1.245 
           0 -1.3625 -1.2887 -2.8262 -1.2675 h -1.8313 c 
           -1.4638 -0.0213 -1.5975 1.2675 -2.8425 1.2675 c 
           -0.815 0 -1.2537 -0.655 -1.25 -1.25 c 0.0037 
           -0.595 0.3687 -1.0325 0.7788 -1.2537 c -0.4288 
           -0.2138 -0.7837 -0.6512 -0.7788 -1.2463 c 0.005 
           -0.595 0.4462 -1.25 1.25 -1.25 c 1.245 0 1.3625 
           1.2537 2.8262 1.2325 m 0.9237 -15 l 15 13.3425 
           l -1.6375 1.8513 l -13.35 -11.8675 l -13.3512 
           11.8675 l -1.6612 -1.8688 l 15 -13.325 z">
    </path>
</svg>
