<svg width="30.000000000000004" height="30.000000000000004" xmlns="http://www.w3.org/2000/svg" fill="none">

 <g>
  <title>Layer 1</title>
  <path stroke="null" id="svg_1" fill="#000000" d="m12.20928,0.38199c-0.82347,0 -1.49104,0.65856 -1.49104,1.47092l0,2.32667c-1.03664,0.41392 -2.00025,0.96706 -2.86714,1.63547l-2.04467,-1.16456c-0.34246,-0.19506 -0.74945,-0.24792 -1.13143,-0.14696c-0.38197,0.10098 -0.70763,0.34751 -0.90536,0.68535l-2.98207,5.09542c-0.41173,0.70353 -0.1674,1.60313 0.54575,2.00935l2.04393,1.16409c-0.07531,0.53439 -0.11417,1.0798 -0.11417,1.63346c0,0.55365 0.03886,1.09893 0.11417,1.63346l-2.04391,1.16409c-0.34248,0.19504 -0.59236,0.51629 -0.69472,0.89314c-0.10234,0.37685 -0.04877,0.77826 0.14895,1.11613l2.98207,5.09542c0.19773,0.33787 0.5234,0.5844 0.90537,0.68545c0.38197,0.10091 0.78895,0.0481 1.13143,-0.14695l2.04469,-1.16468c0.86689,0.66839 1.83049,1.2216 2.86711,1.63552l0,2.3267c0,0.81239 0.66757,1.47092 1.49104,1.47092l5.9642,0c0.82335,0 1.49104,-0.65853 1.49104,-1.47092l0,-2.3267c1.03657,-0.41392 2.00023,-0.96713 2.86711,-1.63552l2.04466,1.16468c0.34249,0.19504 0.74939,0.24785 1.1314,0.14695c0.382,-0.10105 0.70765,-0.34758 0.90536,-0.6853l2.98207,-5.09542c0.19771,-0.33787 0.25139,-0.73943 0.14895,-1.11628c-0.10229,-0.3767 -0.35218,-0.6981 -0.69467,-0.89314l-2.04391,-1.16409c0.0753,-0.53439 0.11421,-1.0798 0.11421,-1.63346c0,-0.55365 -0.03892,-1.09907 -0.11421,-1.63346l2.04391,-1.16409c0.71316,-0.40625 0.95754,-1.30585 0.54572,-2.00938l-2.98207,-5.09542c-0.19771,-0.33786 -0.52335,-0.58437 -0.90536,-0.68535c-0.382,-0.10096 -0.78891,-0.04811 -1.1314,0.14695l-2.04466,1.16459c-0.86689,-0.66842 -1.83055,-1.22154 -2.86711,-1.63546l0,-2.32667c0,-0.81236 -0.66769,-1.47092 -1.49104,-1.47092l-5.9642,0zm1.4911,4.83912l0,-1.89728l2.98207,0l0,1.89728c0,0.65076 -0.29284,1.01095 1.06564,1.4098c1.35848,0.39885 2.58367,1.10859 3.58982,2.04749c0.47907,0.44709 1.19894,0.53056 1.77016,0.20527l1.66802,-0.95005l1.49104,2.54771l-1.66593,0.94885c-0.57077,0.32504 -0.85749,0.98115 -0.70526,1.61364c0.15775,0.65559 0.2417,1.34089 0.2417,2.04738c0,0.70648 -0.08395,1.39179 -0.2417,2.04738c-0.15223,0.6325 0.13449,1.28853 0.70526,1.6136l1.66593,0.94889l-1.49104,2.54764l-1.66817,-0.95007c-0.57107,-0.32522 -1.29094,-0.24182 -1.77016,0.20534c-1.006,0.93889 -2.23119,1.64861 -3.58967,2.04738c-0.6322,0.18563 -1.06564,0.75914 -1.06564,1.40988l0,1.89734l-2.98207,0l0,-1.89734c0,-0.65074 -0.43359,-1.22425 -1.06579,-1.40988c-1.3585,-0.39877 -2.58358,-1.10849 -3.58971,-2.04738c-0.4791,-0.44716 -1.19902,-0.53056 -1.77014,-0.20534l-1.66805,0.95007l-1.49104,-2.54764l1.66592,-0.94889c0.57069,-0.32507 0.85741,-0.9811 0.7052,-1.6136c-0.15775,-0.65559 -0.24161,-1.34089 -0.24161,-2.04738c0,-0.70648 0.08384,-1.39179 0.24161,-2.04738c0.1522,-0.6325 -0.13452,-1.28857 -0.7052,-1.61362l-1.66592,-0.94883l1.49104,-2.54771l1.66802,0.95004c0.57114,0.32529 1.29104,0.2418 1.77016,-0.20528c1.00614,-0.9389 2.23123,-1.64864 3.58973,-2.04751c0.6322,-0.18563 1.06579,-0.75904 1.06579,-1.4098zm-1.49107,9.87009c0,-1.62478 1.3351,-2.94184 2.9821,-2.94184c1.647,0 2.98207,1.31706 2.98207,2.94184c0,1.62478 -1.33507,2.94184 -2.98207,2.94184c-1.647,0 -2.9821,-1.31706 -2.9821,-2.94184zm2.9821,-5.88368c-3.29394,0 -5.96417,2.63421 -5.96417,5.88368c0,3.24941 2.67024,5.88368 5.96417,5.88368c3.29385,0 5.96414,-2.63427 5.96414,-5.88368c0,-3.24947 -2.6703,-5.88368 -5.96414,-5.88368z" clip-rule="evenodd" fill-rule="evenodd"/>
 </g>
</svg>